<svg viewBox="0 0 200 200" fill="none" xmlns="http://www.w3.org/2000/svg">
      <ellipse cx="100" cy="154" rx="72" ry="12" fill="rgba(61, 38, 22, 0.08)" />
      <path d="M 30 115 L 30 142 L 170 142 L 170 115 Z" fill="#d4a373" stroke="#3d2616" stroke-width="2.5" stroke-linejoin="round" />
      <rect x="36" y="119" width="38" height="19" rx="1" fill="#e6c594" stroke="#3d2616" stroke-width="1.8" />
      <rect x="78" y="119" width="44" height="19" rx="1" fill="#fdfaf6" stroke="#3d2616" stroke-width="1.8" />
      <rect x="126" y="119" width="38" height="19" rx="1" fill="#e6c594" stroke="#3d2616" stroke-width="1.8" />
      <polygon points="20,95 180,95 170,115 30,115" fill="#e6c594" stroke="#3d2616" stroke-width="3" stroke-linejoin="round" />
      <rect x="94" y="85" width="12" height="10" fill="#3d2616" />
      <polygon points="85,95 115,95 110,97 90,97" fill="#3d2616" />
      <rect x="52" y="46" width="96" height="42" rx="3" fill="#3d405b" stroke="#3d2616" stroke-width="3" />
      <path d="M 125 50 L 138 50 L 115 84 L 102 84 Z" fill="#ffffff" opacity="0.1" />
      <line x1="42" y1="142" x2="38" y2="152" stroke="#3d2616" stroke-width="3.5" stroke-linecap="round" />
      <line x1="158" y1="142" x2="162" y2="152" stroke="#3d2616" stroke-width="3.5" stroke-linecap="round" />
    </svg>