<svg viewBox="0 0 200 200" fill="none" xmlns="http://www.w3.org/2000/svg">
      <polygon points="25,148 175,148 165,158 35,158" fill="rgba(61, 38, 22, 0.08)" />
      <rect x="30" y="86" width="14" height="64" rx="2" fill="#d4a373" stroke="#3d2616" stroke-width="2.5" />
      <rect x="156" y="86" width="14" height="64" rx="2" fill="#d4a373" stroke="#3d2616" stroke-width="2.5" />
      <rect x="122" y="98" width="22" height="42" rx="1" fill="#3d405b" stroke="#3d2616" stroke-width="1.8" />
      <polygon points="15,64 185,64 175,86 25,86" fill="#e6c594" stroke="#3d2616" stroke-width="3" stroke-linejoin="round" />
      <polygon points="25,86 175,86 175,92 25,92" fill="#d4a373" stroke="#3d2616" stroke-width="2" stroke-linejoin="round" />
      <polygon points="65,70 135,70 131,84 69,84" fill="#3d405b" stroke="#3d2616" stroke-width="1.5" />
      <rect x="78" y="44" width="44" height="24" rx="2" fill="#3d405b" stroke="#3d2616" stroke-width="2" />
      <rect x="94" y="68" width="12" height="4" fill="#3d2616" />
      <polygon points="34,68 50,68 47,80 37,80" fill="#fdfaf6" stroke="#3d2616" stroke-width="1.2" />
      <line x1="42" y1="68" x2="42" y2="80" stroke="#3d2616" stroke-width="1" />
    </svg>