<svg viewBox="0 0 200 200" fill="none" xmlns="http://www.w3.org/2000/svg">
      <line x1="20" y1="35" x2="180" y2="35" stroke="#3d2616" stroke-width="4.5" stroke-linecap="round" />
      <circle cx="20" cy="35" r="4.5" fill="#cfa15c" stroke="#3d2616" stroke-width="1.5" />
      <circle cx="180" cy="35" r="4.5" fill="#cfa15c" stroke="#3d2616" stroke-width="1.5" />
      <line x1="40" y1="35" x2="40" y2="28" stroke="#3d2616" stroke-width="3" />
      <line x1="160" y1="35" x2="160" y2="28" stroke="#3d2616" stroke-width="3" />
      <path d="M 32 38 Q 45 42 45 52 L 45 165 C 45 172, 28 172, 28 165 L 28 38 Z" fill="#fdfaf6" stroke="#3d2616" stroke-width="2.5" stroke-linejoin="round" />
      <path d="M 45 38 Q 58 42 58 52 L 58 152 C 58 158, 45 158, 45 152 L 45 38 Z" fill="#f2efea" stroke="#3d2616" stroke-width="2" stroke-linejoin="round" />
      <line x1="30" y1="115" x2="45" y2="125" stroke="#3d2616" stroke-width="1.5" fill="none" />
      <path d="M 168 38 Q 155 42 155 52 L 155 165 C 155 172, 172 172, 172 165 L 172 38 Z" fill="#fdfaf6" stroke="#3d2616" stroke-width="2.5" stroke-linejoin="round" />
      <path d="M 155 38 Q 142 42 142 52 L 142 152 C 142 158, 155 158, 155 152 L 155 38 Z" fill="#f2efea" stroke="#3d2616" stroke-width="2" stroke-linejoin="round" />
      <line x1="170" y1="115" x2="155" y2="125" stroke="#3d2616" stroke-width="1.5" fill="none" />
      <circle cx="34" cy="118" r="3" fill="#cfa15c" stroke="#3d2616" stroke-width="1" />
      <circle cx="166" cy="118" r="3" fill="#cfa15c" stroke="#3d2616" stroke-width="1" />
    </svg>