<svg viewBox="0 0 200 200" fill="none" xmlns="http://www.w3.org/2000/svg">
      <rect x="35" y="148" width="130" height="12" rx="4" fill="rgba(61, 38, 22, 0.08)" />
      <rect x="125" y="86" width="35" height="64" rx="2" fill="#d4a373" stroke="#3d2616" stroke-width="2.5" />
      <line x1="125" y1="108" x2="160" y2="108" stroke="#3d2616" stroke-width="2.2" />
      <line x1="125" y1="130" x2="160" y2="130" stroke="#3d2616" stroke-width="2.2" />
      <rect x="140" y="94" width="5" height="6" rx="1" fill="#3d2616" />
      <rect x="140" y="116" width="5" height="6" rx="1" fill="#3d2616" />
      <rect x="140" y="138" width="5" height="6" rx="1" fill="#3d2616" />
      <rect x="40" y="86" width="12" height="64" rx="2" fill="#d4a373" stroke="#3d2616" stroke-width="2.5" />
      <polygon points="30,64 170,64 165,86 35,86" fill="#e6c594" stroke="#3d2616" stroke-width="3" stroke-linejoin="round" />
      <polygon points="42,86 125,86 125,120 42,120" fill="#3d2616" opacity="0.08" />
      <rect x="80" y="70" width="30" height="10" rx="1" fill="#3d405b" stroke="#3d2616" stroke-width="1.2" />
      <line x1="75" y1="81" x2="115" y2="81" stroke="#3d2616" stroke-width="2" stroke-linecap="round" />
    </svg>