<svg viewBox="0 0 200 200" fill="none" xmlns="http://www.w3.org/2000/svg">
      <ellipse cx="100" cy="148" rx="66" ry="12" fill="rgba(61, 38, 22, 0.08)" />
      <path d="M 40 100 L 40 55 Q 40 48 48 48 L 152 48 Q 160 48 160 55 L 160 100 Z" fill="#d4a373" stroke="#3d2616" stroke-width="2.5" stroke-linejoin="round" />
      <rect x="42" y="80" width="116" height="66" rx="6" fill="#fdfaf6" stroke="#3d2616" stroke-width="2.5" stroke-linejoin="round" />
      <rect x="50" y="60" width="44" height="26" rx="4" fill="#fdfaf6" stroke="#3d2616" stroke-width="2" />
      <rect x="106" y="60" width="44" height="26" rx="4" fill="#fdfaf6" stroke="#3d2616" stroke-width="2" />
      <rect x="58" y="70" width="28" height="10" rx="3" fill="#a3b19b" stroke="#3d2616" stroke-width="1.2" />
      <rect x="114" y="70" width="28" height="10" rx="3" fill="#a3b19b" stroke="#3d2616" stroke-width="1.2" />
      <path d="M 42 105 C 70 100, 130 100, 158 105" stroke="#3d2616" stroke-width="2" />
      <polygon points="42,105 158,105 158,146 42,146" fill="#e07a5f" opacity="0.15" />
      <path d="M 42 125 C 70 120, 130 120, 158 125 L 158 146 L 42 146 Z" fill="#e07a5f" stroke="#3d2616" stroke-width="2" stroke-linejoin="round" />
      <line x1="48" y1="146" x2="44" y2="155" stroke="#3d2616" stroke-width="3" stroke-linecap="round" />
      <line x1="152" y1="146" x2="156" y2="155" stroke="#3d2616" stroke-width="3" stroke-linecap="round" />
    </svg>