<svg viewBox="0 0 200 200" fill="none" xmlns="http://www.w3.org/2000/svg">
      <line x1="100" y1="20" x2="100" y2="75" stroke="#3d2616" stroke-width="4.5" stroke-linecap="round" />
      <path d="M 90 30 L 110 30 L 105 20 L 95 20 Z" fill="#3d2616" />
      <circle cx="100" cy="115" r="70" stroke="rgba(61, 38, 22, 0.06)" stroke-width="1.5" stroke-dasharray="8 12" />
      <ellipse cx="100" cy="115" rx="24" ry="14" fill="#d4a373" stroke="#3d2616" stroke-width="2.5" />
      <ellipse cx="100" cy="112" rx="24" ry="4" fill="#cfa15c" stroke="#3d2616" stroke-width="1.2" />
      <path d="M 85 120 C 70 128, 30 148, 25 142 C 20 136, 50 120, 80 114 Z" fill="#e6c594" stroke="#3d2616" stroke-width="2" stroke-linejoin="round" />
      <path d="M 115 110 C 130 102, 170 82, 175 88 C 180 94, 150 110, 120 116 Z" fill="#e6c594" stroke="#3d2616" stroke-width="2" stroke-linejoin="round" />
      <path d="M 100 125 C 100 142, 104 182, 98 185 C 92 188, 88 148, 92 125 Z" fill="#e6c594" stroke="#3d2616" stroke-width="2" stroke-linejoin="round" />
    </svg>