<svg viewBox="0 0 200 200" fill="none" xmlns="http://www.w3.org/2000/svg">
      <ellipse cx="100" cy="162" rx="64" ry="10" fill="rgba(61, 38, 22, 0.08)" />
      <line x1="42" y1="35" x2="42" y2="160" stroke="#3d2616" stroke-width="4.5" stroke-linecap="round" />
      <line x1="158" y1="35" x2="158" y2="160" stroke="#3d2616" stroke-width="4.5" stroke-linecap="round" />
      <rect x="44" y="115" width="112" height="38" rx="4" fill="#fdfaf6" stroke="#3d2616" stroke-width="2" />
      <polygon points="44,125 156,125 156,153 44,153" fill="#a3b19b" stroke="#3d2616" stroke-width="1.8" />
      <rect x="50" y="122" width="28" height="15" rx="2" fill="#fdfaf6" stroke="#3d2616" stroke-width="1.5" />
      <rect x="44" y="55" width="112" height="38" rx="4" fill="#fdfaf6" stroke="#3d2616" stroke-width="2" />
      <polygon points="44,65 156,65 156,93 44,93" fill="#e07a5f" stroke="#3d2616" stroke-width="1.8" />
      <rect x="50" y="62" width="28" height="15" rx="2" fill="#fdfaf6" stroke="#3d2616" stroke-width="1.5" />
      <line x1="82" y1="55" x2="156" y2="55" stroke="#3d2616" stroke-width="2" />
      <line x1="82" y1="65" x2="156" y2="65" stroke="#3d2616" stroke-width="2" />
      <line x1="100" y1="55" x2="100" y2="65" stroke="#3d2616" stroke-width="1.5" />
      <line x1="125" y1="55" x2="125" y2="65" stroke="#3d2616" stroke-width="1.5" />
      <line x1="68" y1="55" x2="68" y2="158" stroke="#d4a373" stroke-width="3.5" stroke-linecap="round" />
      <line x1="80" y1="55" x2="80" y2="158" stroke="#d4a373" stroke-width="3.5" stroke-linecap="round" />
      <line x1="68" y1="75" x2="80" y2="75" stroke="#3d2616" stroke-width="2" />
      <line x1="68" y1="95" x2="80" y2="95" stroke="#3d2616" stroke-width="2" />
      <line x1="68" y1="115" x2="80" y2="115" stroke="#3d2616" stroke-width="2" />
      <line x1="68" y1="135" x2="80" y2="135" stroke="#3d2616" stroke-width="2" />
    </svg>