<svg viewBox="0 0 200 200" fill="none" xmlns="http://www.w3.org/2000/svg">
      <ellipse cx="100" cy="155" rx="38" ry="8" fill="rgba(61, 38, 22, 0.08)" />
      <path d="M 100 135 L 70 152 M 100 135 L 130 152 M 100 135 L 100 158 M 100 135 L 82 140 M 100 135 L 118 140" stroke="#3d2616" stroke-width="3" stroke-linecap="round" />
      <circle cx="70" cy="154" r="4" fill="#3d2616" />
      <circle cx="130" cy="154" r="4" fill="#3d2616" />
      <circle cx="100" cy="159" r="4" fill="#3d2616" />
      <rect x="96" y="112" width="8" height="25" rx="1" fill="#3d2616" stroke="#3d2616" stroke-width="1" />
      <path d="M 52 90 L 52 82 Q 52 76 60 76 L 68 76" stroke="#3d2616" stroke-width="3" stroke-linecap="round" fill="none" />
      <path d="M 148 90 L 148 82 Q 148 76 140 76 L 132 76" stroke="#3d2616" stroke-width="3" stroke-linecap="round" fill="none" />
      <rect x="60" y="88" width="80" height="24" rx="6" fill="#3d405b" stroke="#3d2616" stroke-width="2.5" stroke-linejoin="round" />
      <path d="M 66 88 L 66 50 Q 66 40 78 40 L 122 40 Q 134 40 134 50 L 134 88 Z" fill="#81b29a" stroke="#3d2616" stroke-width="2.5" stroke-linejoin="round" />
      <path d="M 72 68 Q 100 62 128 68" stroke="#3d2616" stroke-width="1.8" fill="none" stroke-linecap="round" />
    </svg>