<svg viewBox="0 0 200 200" fill="none" xmlns="http://www.w3.org/2000/svg">
      <ellipse cx="100" cy="148" rx="55" ry="15" fill="rgba(61, 38, 22, 0.08)" />
      <line x1="70" y1="95" x2="60" y2="148" stroke="#3d2616" stroke-width="3.5" stroke-linecap="round" />
      <line x1="130" y1="95" x2="140" y2="148" stroke="#3d2616" stroke-width="3.5" stroke-linecap="round" />
      <line x1="100" y1="95" x2="100" y2="152" stroke="#3d2616" stroke-width="3.5" stroke-linecap="round" />
      <path d="M 45 92 C 30 78, 60 62, 100 62 C 140 62, 170 78, 155 92 C 140 106, 110 110, 100 110 C 90 110, 60 106, 45 92 Z" fill="#e6c594" stroke="#3d2616" stroke-width="3" stroke-linejoin="round" />
      <path d="M 45 92 C 60 106, 90 110, 100 110 C 110 110, 140 106, 155 92 L 155 98 C 140 112, 110 116, 100 116 C 90 116, 60 112, 45 98 Z" fill="#d4a373" stroke="#3d2616" stroke-width="2" stroke-linejoin="round" />
      <path d="M 68 80 Q 100 72 132 80" stroke="#3d2616" stroke-width="1" stroke-linecap="round" opacity="0.4" />
      <path d="M 80 88 Q 100 82 120 88" stroke="#3d2616" stroke-width="1" stroke-linecap="round" opacity="0.3" />
    </svg>