<svg viewBox="0 0 200 200" fill="none" xmlns="http://www.w3.org/2000/svg">
      <ellipse cx="100" cy="145" rx="75" ry="15" fill="rgba(61, 38, 22, 0.08)" />
      <path d="M 30 110 L 30 75 Q 30 65 40 65 L 160 65 Q 170 65 170 75 L 170 110 Z" fill="#fdfaf6" stroke="#3d2616" stroke-width="2.5" stroke-linejoin="round" />
      <path d="M 25 110 L 25 95 Q 25 90 32 90 L 45 90 Q 52 90 52 95 L 52 125 L 35 125 Q 25 125 25 110 Z" fill="#e6c594" stroke="#3d2616" stroke-width="2.5" stroke-linejoin="round" />
      <path d="M 175 110 L 175 95 Q 175 90 168 90 L 155 90 Q 148 90 148 95 L 148 125 L 165 125 Q 175 125 175 110 Z" fill="#e6c594" stroke="#3d2616" stroke-width="2.5" stroke-linejoin="round" />
      <rect x="48" y="105" width="104" height="28" rx="6" fill="#fdfaf6" stroke="#3d2616" stroke-width="2.5" stroke-linejoin="round" />
      <line x1="82" y1="105" x2="82" y2="133" stroke="#3d2616" stroke-width="1.8" />
      <line x1="118" y1="105" x2="118" y2="133" stroke="#3d2616" stroke-width="1.8" />
      <rect x="52" y="72" width="30" height="33" rx="4" fill="#e07a5f" stroke="#3d2616" stroke-width="2" />
      <rect x="85" y="72" width="30" height="33" rx="4" fill="#e07a5f" stroke="#3d2616" stroke-width="2" />
      <rect x="118" y="72" width="30" height="33" rx="4" fill="#e07a5f" stroke="#3d2616" stroke-width="2" />
      <line x1="32" y1="125" x2="28" y2="142" stroke="#3d2616" stroke-width="3" stroke-linecap="round" />
      <line x1="168" y1="125" x2="172" y2="142" stroke="#3d2616" stroke-width="3" stroke-linecap="round" />
    </svg>