<svg viewBox="0 0 200 200" fill="none" xmlns="http://www.w3.org/2000/svg">
      <polygon points="40,110 160,110 156,115 44,115" fill="rgba(61, 38, 22, 0.06)" />
      <polygon points="30,85 170,85 160,102 40,102" fill="#e6c594" stroke="#3d2616" stroke-width="2.5" stroke-linejoin="round" />
      <polygon points="40,102 160,102 160,108 40,108" fill="#d4a373" stroke="#3d2616" stroke-width="2" stroke-linejoin="round" />
      <line x1="50" y1="102" x2="50" y2="120" stroke="#3d2616" stroke-width="2.5" stroke-linecap="round" />
      <line x1="50" y1="102" x2="56" y2="102" stroke="#3d2616" stroke-width="2" />
      <line x1="150" y1="102" x2="150" y2="120" stroke="#3d2616" stroke-width="2.5" stroke-linecap="round" />
      <line x1="150" y1="102" x2="144" y2="102" stroke="#3d2616" stroke-width="2" />
      <path d="M 68 85 L 68 76 Q 68 72 72 72 L 80 72 Q 84 72 84 76 L 84 85 Z" fill="#81b29a" stroke="#3d2616" stroke-width="1.8" />
      <rect x="69" y="80" width="14" height="5" rx="1" fill="#e07a5f" />
      <rect x="110" y="55" width="8" height="30" fill="#e07a5f" stroke="#3d2616" stroke-width="1.5" />
      <rect x="118" y="58" width="8" height="27" fill="#3d405b" stroke="#3d2616" stroke-width="1.5" />
      <rect x="126" y="62" width="8" height="23" fill="#fdfaf6" stroke="#3d2616" stroke-width="1.5" />
      <polygon points="134,85 142,85 134,68" fill="#d4a373" stroke="#3d2616" stroke-width="1.5" />
    </svg>