<svg viewBox="0 0 200 200" fill="none" xmlns="http://www.w3.org/2000/svg">
      <polygon points="60,162 140,162 145,166 55,166" fill="rgba(61, 38, 22, 0.08)" />
      <line x1="68" y1="40" x2="60" y2="162" stroke="#3d2616" stroke-width="3" stroke-linecap="round" />
      <line x1="132" y1="40" x2="140" y2="162" stroke="#3d2616" stroke-width="3" stroke-linecap="round" />
      <polygon points="73,65 127,65 125,70 75,70" fill="#e6c594" stroke="#3d2616" stroke-width="2" />
      <polygon points="70,95 130,95 128,100 72,100" fill="#e6c594" stroke="#3d2616" stroke-width="2" />
      <polygon points="66,125 134,125 131,130 69,130" fill="#e6c594" stroke="#3d2616" stroke-width="2" />
      <polygon points="62,152 138,152 135,157 65,157" fill="#e6c594" stroke="#3d2616" stroke-width="2" />
      <rect x="76" y="106" width="6" height="19" fill="#e07a5f" stroke="#3d2616" stroke-width="1.2" />
      <rect x="83" y="109" width="6" height="16" fill="#81b29a" stroke="#3d2616" stroke-width="1.2" />
      <rect x="90" y="112" width="6" height="13" fill="#3d405b" stroke="#3d2616" stroke-width="1.2" />
      <path d="M 107 83 C 107 77, 115 77, 115 83 L 117 95 L 105 95 Z" fill="#fdfaf6" stroke="#3d2616" stroke-width="1.5" />
      <circle cx="111" cy="88" r="3.5" fill="#e07a5f" />
    </svg>