<svg viewBox="0 0 200 200" fill="none" xmlns="http://www.w3.org/2000/svg">
      <ellipse cx="100" cy="165" rx="38" ry="8" fill="rgba(61, 38, 22, 0.08)" />
      <line x1="82" y1="65" x2="65" y2="162" stroke="#3d2616" stroke-width="3" stroke-linecap="round" />
      <line x1="118" y1="65" x2="135" y2="162" stroke="#3d2616" stroke-width="3" stroke-linecap="round" />
      <line x1="68" y1="162" x2="132" y2="162" stroke="#3d2616" stroke-width="2.5" />
      <polygon points="110,120 148,120 144,124 114,124" fill="#d4a373" stroke="#3d2616" stroke-width="1.8" />
      <path d="M 120 120 L 122 108 L 138 108 L 140 120 Z" fill="#e07a5f" stroke="#3d2616" stroke-width="1.5" />
      <circle cx="130" cy="98" r="10" fill="#81b29a" stroke="#3d2616" stroke-width="1.2" />
      <circle cx="125" cy="100" r="7" fill="#81b29a" />
      <circle cx="135" cy="96" r="7" fill="#81b29a" />
      <polygon points="52,95 90,95 86,99 56,99" fill="#d4a373" stroke="#3d2616" stroke-width="1.8" />
      <path d="M 62 95 L 64 83 L 78 83 L 80 95 Z" fill="#e07a5f" stroke="#3d2616" stroke-width="1.5" />
      <path d="M 71 83 C 71 70, 60 70, 65 65 C 70 60, 75 75, 71 83 Z" fill="#81b29a" stroke="#3d2616" stroke-width="1.2" />
      <path d="M 71 83 C 71 70, 82 70, 77 65 C 72 60, 67 75, 71 83 Z" fill="#81b29a" stroke="#3d2616" stroke-width="1.2" />
      <polygon points="80,62 120,62 116,66 84,66" fill="#d4a373" stroke="#3d2616" stroke-width="1.8" />
      <path d="M 92 62 L 94 50 L 106 50 L 108 62 Z" fill="#fdfaf6" stroke="#3d2616" stroke-width="1.5" />
      <circle cx="100" cy="42" r="8" fill="#81b29a" stroke="#3d2616" stroke-width="1.2" />
    </svg>