<svg viewBox="0 0 200 200" fill="none" xmlns="http://www.w3.org/2000/svg">
      <ellipse cx="100" cy="155" rx="55" ry="8" fill="rgba(61, 38, 22, 0.08)" />
      <line x1="56" y1="85" x2="52" y2="155" stroke="#3d2616" stroke-width="2.5" stroke-linecap="round" />
      <line x1="144" y1="85" x2="148" y2="155" stroke="#3d2616" stroke-width="2.5" stroke-linecap="round" />
      <line x1="68" y1="85" x2="68" y2="150" stroke="#3d2616" stroke-width="1.8" opacity="0.6" />
      <line x1="132" y1="85" x2="132" y2="150" stroke="#3d2616" stroke-width="1.8" opacity="0.6" />
      <polygon points="56,125 144,125 141,130 59,130" fill="#d4a373" stroke="#3d2616" stroke-width="1.8" />
      <polygon points="45,66 155,66 150,85 50,85" fill="#e6c594" stroke="#3d2616" stroke-width="2.5" stroke-linejoin="round" />
      <polygon points="50,85 150,85 150,91 50,91" fill="#d4a373" stroke="#3d2616" stroke-width="1.8" stroke-linejoin="round" />
      <path d="M 94 66 L 96 56 Q 96 52 100 52 Q 104 52 104 56 L 106 66 Z" fill="#81b29a" stroke="#3d2616" stroke-width="1.2" />
      <rect x="95" y="60" width="10" height="6" rx="1" fill="#e07a5f" stroke="#3d2616" stroke-width="1" />
    </svg>